<!DOCTYPE svg PUBLIC "-//W3C//DTD SVG 1.1//EN" "http://www.w3.org/Graphics/SVG/1.1/DTD/svg11.dtd">

<!-- Uploaded to: SVG Repo, www.svgrepo.com, Transformed by: SVG Repo Mixer Tools -->
<svg fill="#ffffff" height="53px" width="80px" version="1.1" id="Layer_1" xmlns="http://www.w3.org/2000/svg" xmlns:xlink="http://www.w3.org/1999/xlink" viewBox="0 0 330 330" xml:space="preserve">

<g id="SVGRepo_bgCarrier" stroke-width="0"/>

<g id="SVGRepo_tracerCarrier" stroke-linecap="round" stroke-linejoin="round"/>

<g id="SVGRepo_iconCarrier"> <g id="XMLID_2_"> <path id="XMLID_4_" d="M315,42.857H15c-8.284,0-15,6.716-15,15v214.286c0,8.284,6.716,15,15,15h300c8.284,0,15-6.716,15-15V57.857 C330,49.573,323.284,42.857,315,42.857z M300,257.143H30V72.857h270V257.143z"/> <path id="XMLID_7_" d="M148.84,231.494l29.684-0.001l0.329,0.001c0.001,0,0.001,0,0.003,0c17.411,0,34.911-7.041,48.013-19.316 c13.547-12.691,21.007-29.257,21.007-46.644c0-18.686-7.505-35.887-21.133-48.434c-12.835-11.816-30.382-18.594-48.199-18.594 h-29.447c-38.181,0-66.973,28.816-66.973,67.028C82.124,201.904,112.053,231.494,148.84,231.494z M202.47,164.887 c0,29.338-23.856,53.207-53.18,53.207c-29.336,0-53.203-23.869-53.203-53.207s23.867-53.207,53.203-53.207 C178.613,111.681,202.47,135.549,202.47,164.887z"/> <path id="XMLID_10_" d="M185.546,164.887c-0.029-15.434-9.674-28.625-23.287-33.863v67.697 C175.872,193.491,185.517,180.329,185.546,164.887z"/> <path id="XMLID_11_" d="M113.04,164.887c0.027,15.441,9.646,28.604,23.264,33.834v-67.697 C122.686,136.291,113.067,149.453,113.04,164.887z"/> </g> </g>

</svg>